#!OML:ASF H:\Dans Jumps\Project 1\Capture day 1\Session 1\subject.ASF
:FULLY-SPECIFIED
:DEGREES
77
root 0.512003 17.5631 -13.8065 5.21379 -1.45131 -1.85562
lowerback -2.54974 -0.358803 0.382122
upperback 2.31609 -0.555631 1.707
thorax 3.82762 -0.291507 1.51211
lowerneck -13.9248 0.190246 -2.26447
upperneck 30.0476 0.585252 0.953714
head 12.1919 0.121297 0.835446
rclavicle 4.82053e-015 6.16232e-015
rhumerus -27.6575 -17.5493 -77.949
rradius 23.9206
rwrist 31.724
rhand -19.5104 -26.5462
rfingers 7.12502
rthumb 6.81249 -56.4166
lclavicle 4.82053e-015 6.16232e-015
lhumerus -25.2566 3.14769 86.5951
lradius 16.5777
lwrist 2.10763
lhand -25.4294 -3.89702
lfingers 7.12502
lthumb 1.09684 26.0799
rfemur -11.0157 -2.63897 20.1643
rtibia 19.7132
rfoot -13.2467 -1.70362
rtoes 10.8803
lfemur -9.86251 6.10244 -17.5013
ltibia 18.0936
lfoot -11.0503 4.4815
ltoes -0.443138
78
root 0.512455 17.563 -13.8058 5.21522 -1.45813 -1.86054
lowerback -2.55217 -0.355702 0.386688
upperback 2.3148 -0.551736 1.70804
thorax 3.82754 -0.289455 1.51084
lowerneck -13.9215 0.189811 -2.26028
upperneck 30.0546 0.585792 0.946098
head 12.1941 0.120973 0.831965
rclavicle -4.96962e-016 1.0138e-014
rhumerus -27.6612 -17.5232 -77.9608
rradius 23.9369
rwrist 31.6981
rhand -19.5099 -26.5501
rfingers 7.12502
rthumb 6.81297 -56.4204
lclavicle -4.96962e-016 1.0138e-014
lhumerus -25.2557 3.17464 86.581
lradius 16.5653
lwrist 2.09298
lhand -25.4356 -3.90237
lfingers 7.12502
lthumb 1.09086 26.0746
rfemur -11.0171 -2.63947 20.1677
rtibia 19.7151
rfoot -13.2476 -1.69857
rtoes 10.8791
lfemur -9.86484 6.10581 -17.4982
ltibia 18.1039
lfoot -11.0574 4.48907
ltoes -0.455199
79
root 0.512917 17.5629 -13.805 5.21637 -1.46408 -1.86629
lowerback -2.55443 -0.352683 0.392871
upperback 2.31377 -0.548014 1.70883
thorax 3.82761 -0.287441 1.50839
lowerneck -13.9195 0.190063 -2.25405
upperneck 30.063 0.587132 0.937448
head 12.1971 0.121093 0.827873
rclavicle -7.55382e-015 5.36719e-015
rhumerus -27.6627 -17.5014 -77.9728
rradius 23.951
rwrist 31.6708
rhand -19.512 -26.5532
rfingers 7.12502
rthumb 6.8109 -56.4237
lclavicle -7.55382e-015 5.36719e-015
lhumerus -25.254 3.19884 86.5657
lradius 16.5504
lwrist 2.07344
lhand -25.436 -3.90424
lfingers 7.12502
lthumb 1.09044 26.0727
rfemur -11.0182 -2.63999 20.172
rtibia 19.7177
rfoot -13.2484 -1.69393
rtoes 10.8743
lfemur -9.86855 6.10953 -17.4943
ltibia 18.1161
lfoot -11.0665 4.49594
ltoes -0.467591
80
root 0.513422 17.5627 -13.8041 5.21732 -1.46838 -1.87188
lowerback -2.55694 -0.350762 0.400073
upperback 2.31268 -0.545799 1.70947
thorax 3.82778 -0.286148 1.50512
lowerneck -13.919 0.191132 -2.24888
upperneck 30.0736 0.589692 0.929732
head 12.2012 0.121734 0.824516
rclavicle -3.08116e-015 -1.19271e-015
rhumerus -27.6631 -17.4808 -77.9843
rradius 23.9628
rwrist 31.6454
rhand -19.5172 -26.5504
rfingers 7.12502
rthumb 6.80589 -56.421
lclavicle -3.08116e-015 -1.19271e-015
lhumerus -25.2529 3.22295 86.5486
lradius 16.5331
lwrist 2.04824
lhand -25.4272 -3.90601
lfingers 7.12502
lthumb 1.09897 26.0709
rfemur -11.019 -2.64202 20.1761
rtibia 19.7211
rfoot -13.2498 -1.68955
rtoes 10.8574
lfemur -9.87317 6.11324 -17.4907
ltibia 18.1296
lfoot -11.0743 4.50124
ltoes -0.480742
